<?xml version="1.0" encoding="UTF-8"?>
<svg width="475px" height="228px" viewBox="0 0 475 228" version="1.1" xmlns="http://www.w3.org/2000/svg" xmlns:xlink="http://www.w3.org/1999/xlink">
    <!-- Generator: Sketch 50.2 (55047) - http://www.bohemiancoding.com/sketch -->
    <title>Group</title>
    <desc>Created with Sketch.</desc>
    <defs></defs>
    <g id="Page-1" stroke="none" stroke-width="1" fill="none" fill-rule="evenodd">
        <g id="Group" fill="#FFFFFF">
            <path d="M0,0 L475,0 L475,228 L0,228 L0,0 Z M19,19 L19,210 L456,210 L456,19 L19,19 Z" id="Combined-Shape"></path>
            <path d="M51,49 L93.7822878,49 C100.938262,49 107.838562,50.314888 114.483395,52.9447034 C121.128228,55.5745188 127.006261,59.5803403 132.117671,64.9622881 C137.229081,70.3442359 141.318148,77.1021486 144.384994,85.2362288 C147.45184,93.370309 148.98524,102.94147 148.98524,113.95 C148.98524,125.080847 147.22183,134.713166 143.694957,142.847246 C140.168084,150.981326 135.618997,157.70866 130.04756,163.029449 C124.476124,168.350238 118.29141,172.325481 111.493235,174.955297 C104.69506,177.585112 98.0247696,178.9 91.4821648,178.9 L51,178.9 L51,49 Z M84.7351374,157.983898 C90.7666012,157.983898 96.4657378,157.158271 101.832718,155.506992 C107.199699,153.855712 111.876569,151.287094 115.863469,147.801059 C119.850368,144.315025 122.993838,139.789364 125.293973,134.223941 C127.594107,128.658517 128.744157,121.900605 128.744157,113.95 C128.744157,106.121712 127.721891,99.3943784 125.677327,93.7677966 C123.632763,88.1412148 120.795973,83.5849751 117.166872,80.0989407 C113.537771,76.6129063 109.244251,74.0442879 104.286183,72.3930085 C99.3281152,70.741729 93.8845452,69.9161017 87.9553096,69.9161017 L70.3210332,69.9161017 L70.3210332,157.983898 L84.7351374,157.983898 Z M166.926199,49 L186.247232,49 L186.247232,178.9 L166.926199,178.9 L166.926199,49 Z M210.01517,49 L252.797458,49 C259.953432,49 266.853732,50.314888 273.498565,52.9447034 C280.143398,55.5745188 286.021431,59.5803403 291.132841,64.9622881 C296.244251,70.3442359 300.333318,77.1021486 303.400164,85.2362288 C306.46701,93.370309 308.00041,102.94147 308.00041,113.95 C308.00041,125.080847 306.237,134.713166 302.710127,142.847246 C299.183254,150.981326 294.634168,157.70866 289.062731,163.029449 C283.491294,168.350238 277.30658,172.325481 270.508405,174.955297 C263.71023,177.585112 257.03994,178.9 250.497335,178.9 L210.01517,178.9 L210.01517,49 Z M243.750308,157.983898 C249.781771,157.983898 255.480908,157.158271 260.847888,155.506992 C266.214869,153.855712 270.891739,151.287094 274.878639,147.801059 C278.865539,144.315025 282.009009,139.789364 284.309143,134.223941 C286.609278,128.658517 287.759328,121.900605 287.759328,113.95 C287.759328,106.121712 286.737061,99.3943784 284.692497,93.7677966 C282.647933,88.1412148 279.811143,83.5849751 276.182042,80.0989407 C272.552941,76.6129063 268.259421,74.0442879 263.301353,72.3930085 C258.343285,70.741729 252.899715,69.9161017 246.97048,69.9161017 L229.336203,69.9161017 L229.336203,157.983898 L243.750308,157.983898 Z M361.516605,49 L378.230832,49 L425,178.9 L402.918819,178.9 L392.798278,149.177119 L345.722427,149.177119 L335.908569,178.9 L314.287413,178.9 L361.516605,49 Z M386.051251,129.361864 L369.337023,76.5211864 L352.316113,129.361864 L386.051251,129.361864 Z" id="DIDA"></path>
        </g>
    </g>
</svg>